<?xml version="1.0" encoding="utf-8"?>
<!-- Generator: Adobe Illustrator 24.0.1, SVG Export Plug-In . SVG Version: 6.00 Build 0)  -->
<svg version="1.1" id="Layer_1" xmlns="http://www.w3.org/2000/svg" xmlns:xlink="http://www.w3.org/1999/xlink" x="0px" y="0px"
	 viewBox="0 0 74 26" style="enable-background:new 0 0 74 26;" xml:space="preserve">
<style type="text/css">
	.st0{fill:#FFFFFF;stroke:#FFFFFF;stroke-width:6.697605e-02;stroke-miterlimit:10;}
	.st1{fill:#FFFFFF;stroke:#FFFFFF;stroke-width:0.3146;stroke-miterlimit:10;}
	.st2{fill:#00EF5D;}
	.st3{font-family:'Poppins-Regular';}
	.st4{font-size:6.7688px;}
</style>
<g>
	<g>
		<g>
			<g>
				<path class="st0" d="M19.5,7c-0.1,0.1-0.1,0.1-0.1,0.2c-0.9,2.1-1.9,4.1-2.8,6.2c-0.2,0.5-0.5,1.1-0.8,1.6
					c-0.1,0.1-0.2,0.2-0.3,0.2c-1.7,0-3.4,0-5.1,0c-0.1,0-0.1,0-0.2,0c0.2-0.5,0.4-1,0.7-1.5c1.9-4.4,3.9-8.7,5.9-13.1
					C17.5,2.7,18.5,4.9,19.5,7z"/>
				<path class="st0" d="M28.9,15.2c-0.2,0-0.3,0-0.4,0c-1.6,0-3.2,0-4.8,0c-0.3,0-0.5-0.1-0.6-0.4c-1.1-2.5-2.3-5.1-3.4-7.6
					c0-0.1-0.1-0.2-0.2-0.3c1-2.1,1.9-4.2,2.9-6.3c0.5,1.2,1.3,2.9,2.3,5.2c0.1,0.2,0.1,0.3,0.2,0.4c1.3,2.8,2.6,5.7,3.9,8.5
					C28.8,15,28.8,15.1,28.9,15.2z"/>
				<path class="st0" d="M22.3,0.6c-1,2.1-1.9,4.2-2.9,6.3c-1-2.1-1.9-4.2-2.9-6.3C18.5,0.6,20.4,0.6,22.3,0.6z"/>
			</g>
			<g>
				<path class="st1" d="M38.7,9.2l3.9,1.2c-0.3,1.1-0.7,2-1.2,2.7c-0.6,0.7-1.3,1.3-2.1,1.7c-0.8,0.4-1.9,0.6-3.2,0.6
					c-1.6,0-2.8-0.2-3.8-0.7c-1-0.5-1.8-1.3-2.6-2.4c-0.7-1.1-1.1-2.6-1.1-4.4c0-2.4,0.6-4.2,1.9-5.5c1.3-1.3,3.1-1.9,5.4-1.9
					c1.8,0,3.2,0.4,4.3,1.1c1,0.7,1.8,1.9,2.3,3.4l-3.9,0.9c-0.1-0.4-0.3-0.8-0.4-1c-0.2-0.3-0.6-0.6-0.9-0.8
					c-0.4-0.2-0.8-0.3-1.2-0.3c-1,0-1.8,0.4-2.3,1.2c-0.4,0.6-0.6,1.5-0.6,2.8c0,1.6,0.2,2.7,0.7,3.3c0.5,0.6,1.2,0.9,2,0.9
					c0.9,0,1.5-0.2,1.9-0.7C38.2,10.8,38.5,10.1,38.7,9.2z"/>
				<path class="st1" d="M44,10.4l4.2-0.3c0.1,0.7,0.3,1.2,0.6,1.6c0.5,0.6,1.1,0.9,2,0.9c0.6,0,1.1-0.1,1.5-0.4
					c0.3-0.3,0.5-0.6,0.5-1c0-0.4-0.2-0.7-0.5-1c-0.3-0.3-1.1-0.6-2.3-0.8c-2-0.4-3.3-1-4.2-1.7c-0.8-0.7-1.3-1.7-1.3-2.8
					c0-0.7,0.2-1.4,0.6-2.1c0.4-0.7,1.1-1.2,1.9-1.6c0.9-0.4,2-0.6,3.5-0.6c1.8,0,3.2,0.3,4.2,1c1,0.7,1.5,1.8,1.7,3.3L52.4,5
					c-0.1-0.6-0.3-1.1-0.7-1.4c-0.4-0.3-0.8-0.4-1.5-0.4c-0.5,0-0.9,0.1-1.2,0.3c-0.3,0.2-0.4,0.5-0.4,0.8c0,0.2,0.1,0.4,0.3,0.6
					c0.2,0.2,0.7,0.4,1.5,0.5c1.9,0.4,3.3,0.8,4.2,1.3c0.8,0.4,1.5,1,1.8,1.6c0.4,0.6,0.6,1.3,0.6,2.1c0,0.9-0.3,1.8-0.8,2.6
					c-0.5,0.8-1.2,1.4-2.1,1.8c-0.9,0.4-2.1,0.6-3.5,0.6c-2.4,0-4.1-0.5-5.1-1.4C44.7,13,44.1,11.8,44,10.4z"/>
			</g>
		</g>
		<circle class="st2" cx="61.2" cy="12.8" r="2.6"/>
	</g>
	<text transform="matrix(1 0 0 1 10.0835 23.8008)" class="st2 st3 st4">Insights</text>
	<rect x="38.3" y="22" class="st2" width="25.6" height="0.3"/>
	<rect x="49.4" y="23.1" class="st2" width="13.6" height="0.1"/>
	<rect x="39.1" y="21.1" class="st2" width="13.6" height="0.1"/>
</g>
</svg>
